<?xml version="1.0" encoding="UTF-8" standalone="no"?>
<!-- Created with Inkscape (http://www.inkscape.org/) -->

<svg
   xmlns:dc="http://purl.org/dc/elements/1.1/"
   xmlns:cc="http://creativecommons.org/ns#"
   xmlns:rdf="http://www.w3.org/1999/02/22-rdf-syntax-ns#"
   xmlns:svg="http://www.w3.org/2000/svg"
   xmlns="http://www.w3.org/2000/svg"
   xmlns:sodipodi="http://sodipodi.sourceforge.net/DTD/sodipodi-0.dtd"
   xmlns:inkscape="http://www.inkscape.org/namespaces/inkscape"
   id="svg2"
   version="1.1"
   inkscape:version="0.91 r13725"
   width="13.545429mm"
   height="11.74233mm"
   viewBox="0 0 47.995615 41.606679"
   sodipodi:docname="logo2.svg">
  <sodipodi:namedview
     pagecolor="#ffffff"
     bordercolor="#666666"
     borderopacity="1"
     objecttolerance="10"
     gridtolerance="10"
     guidetolerance="10"
     inkscape:pageopacity="0"
     inkscape:pageshadow="2"
     inkscape:window-width="2001"
     inkscape:window-height="1128"
     id="namedview4"
     showgrid="false"
     inkscape:zoom="6.9532167"
     inkscape:cx="45.817596"
     inkscape:cy="30.745298"
     inkscape:window-x="47"
     inkscape:window-y="24"
     inkscape:window-maximized="1"
     inkscape:current-layer="svg2"
     fit-margin-top="4.1"
     fit-margin-left="0"
     fit-margin-right="0"
     fit-margin-bottom="0"
     units="mm" />
  <metadata
     id="metadata8">
    <rdf:RDF>
      <cc:Work
         rdf:about="">
        <dc:format>image/svg+xml</dc:format>
        <dc:type
           rdf:resource="http://purl.org/dc/dcmitype/StillImage" />
        <dc:title></dc:title>
      </cc:Work>
    </rdf:RDF>
  </metadata>
  <defs
     id="defs6" />
  <path
     style="fill:#fe10fe"
     d="m 0.52499809,41.280297 c -0.46841644,-0.27283 -0.52397567,-0.86193 -0.51549596,-5.46588 0.009504,-5.16009 0.009504,-5.16009 0.64996514,-4.26009 0.35225363,0.495 1.59760113,1.85616 2.76743893,3.02481 2.6971314,2.69438 5.153601,3.93519 8.5596898,4.32366 2.957011,0.33726 4.601085,-0.0838 6.763402,-1.73195 3.035964,-2.31412 3.860032,-2.76652 5.039363,-2.76652 1.41016,0 2.003826,0.30478 4.110637,2.11031 0.9075,0.77773 1.936643,1.56166 2.286984,1.74208 2.434842,1.25388 6.925737,0.99262 10.255704,-0.59663 1.966797,-0.93866 5.355189,-3.93797 6.897843,-6.10576 0.640461,-0.9 0.640461,-0.9 0.649965,4.26445 0.0089,4.80422 -0.03097,5.1861 -0.570774,5.475 -0.795768,0.42588 -46.1627721,0.41284 -46.89472191,-0.0135 z M 9.2999981,25.588167 c -2.6984364,-0.59835 -5.3381619,-2.21392 -6.1349421,-3.75472 -0.4607285,-0.89095 -0.1811224,-1.52912 0.6699663,-1.52912 0.2282631,0 1.4497296,-0.41432 2.7143697,-0.9207 2.8565427,-1.14382 5.39084,-1.22997 7.955388,-0.27045 2.072273,0.77533 3.329631,1.79047 4.108373,3.31694 0.720822,1.41292 0.777894,3.1367 0.112309,3.39211 -0.827704,0.31762 -7.708035,0.14677 -9.4254639,-0.23406 z m 19.8749999,0.2356 c -0.559967,-0.25302 -0.452694,-2.09184 0.195805,-3.35639 1.915253,-3.73468 7.131866,-5.065 12.084677,-3.0818 1.261959,0.50531 2.491701,0.91875 2.73276,0.91875 0.241059,0 0.589803,0.18256 0.774987,0.40569 0.796761,0.96004 -2.459841,3.83498 -5.359113,4.73104 -1.126152,0.34805 -9.80126,0.6664 -10.429116,0.38271 z m -6.22385,-12.41778 c -1.227628,-1.77147 -3.278456,-3.5487797 -5.042777,-4.3702297 -2.32067,-1.08049 -4.474064,-0.99149 -8.3426641,0.34478 -5.5419537,1.9142797 -6.6022122,2.2237897 -7.6179009,2.2237897 -1.83652994,0 -1.9478079073486,-0.14684 -1.9478079073486,-2.5702697 0,-2.37546 0.088354697349,-2.54091 1.8000000073486,-3.3706997 0.7989803,-0.38734 1.2879258,-0.98644 2.0452284,-2.50601 1.3405692,-2.68993016 1.6526127,-2.80302016 7.7343555,-2.80302016 5.867193,0 6.164865,0.11177 7.371458,2.76794016 1.406911,3.09715 0.487035,2.91797 15.528477,3.02477 9.686415,0.0688 13.115607,0.18495 13.284129,0.4499997 0.124941,0.19651 0.229233,1.32029 0.231759,2.4973 0.0042,1.9675397 -0.04981,2.1545897 -0.670407,2.3208997 -1.303263,0.34926 -2.794395,0.16937 -4.875,-0.58812 -6.876513,-2.5035597 -7.12758,-2.5702197 -9.179874,-2.4374497 -2.657208,0.17191 -4.577483,1.25061 -7.17203,4.0288197 -1.122732,1.20221 -2.103243,2.18584 -2.178913,2.18584 -0.07567,0 -0.511285,-0.53925 -0.968033,-1.19834 z"
     id="path3440"
     inkscape:connector-curvature="0" />
  <path
     style="fill:#000000"
     d=""
     id="path3438"
     inkscape:connector-curvature="0" />
</svg>
